<svg xmlns="http://www.w3.org/2000/svg" xmlns:xlink="http://www.w3.org/1999/xlink" version="1.0" x="0px" y="0px" viewBox="0 0 100 100" enable-background="new 0 0 100 100" xml:space="preserve"><path d="M71,11.488C71,7.905,68.095,5,64.512,5H33.488C29.905,5,27,7.905,27,11.488v77.025C27,92.095,29.905,95,33.488,95h31.025  C68.095,95,71,92.095,71,88.512V11.488z M46.49,10h5.845c0.354,0,0.643,0.146,0.643,0.5S52.688,11,52.335,11H46.49  c-0.354,0-0.643-0.146-0.643-0.5S46.136,10,46.49,10z M49.412,92.596c-1.962,0-3.552-1.59-3.552-3.552s1.59-3.552,3.552-3.552  s3.552,1.59,3.552,3.552S51.374,92.596,49.412,92.596z M68,83H30V16h38V83z"></path></svg>