<svg width="400" height="400" viewBox="0 0 400 400" fill="none" xmlns="http://www.w3.org/2000/svg">
<path d="M301.569 126.441C303.596 124.1 303.383 120.568 301.088 118.488L281.782 100.987C279.425 98.851 275.777 99.0571 273.676 101.445L178.193 209.968C176.318 212.099 176.298 215.286 178.145 217.441L196.039 238.315C198.306 240.959 202.394 240.97 204.673 238.337L301.569 126.441Z" fill="black"/>
<path d="M272.497 104.687C272.504 101.807 274.841 99.477 277.72 99.477H305.276C308.161 99.477 310.5 101.816 310.5 104.701V276.604C310.5 279.489 308.161 281.828 305.276 281.828H277.273C274.382 281.828 272.042 279.481 272.049 276.59L272.497 104.687Z" fill="black"/>
<path d="M300.363 275.321C300.195 272.409 302.511 269.956 305.427 269.956C308.229 269.956 310.5 272.227 310.5 275.029V296.17C310.5 298.09 309.271 299.796 307.449 300.403C304.661 301.333 301.752 299.361 301.582 296.427L300.363 275.321Z" fill="black"/>
<path d="M274.41 276.604H272.035V280.878H274.41V276.604Z" fill="black"/>
<path d="M310.5 280.878L303.614 299.873L272.035 280.878L310.5 280.878Z" fill="black"/>
<path d="M98.431 126.282C96.4039 123.941 96.6173 120.409 98.9117 118.329L118.218 100.828C120.575 98.692 124.223 98.8981 126.324 101.286L221.807 209.809C223.682 211.94 223.702 215.127 221.855 217.282L203.961 238.156C201.694 240.8 197.606 240.811 195.327 238.178L98.431 126.282Z" fill="black"/>
<path d="M127.503 104.528C127.496 101.648 125.159 99.318 122.28 99.318H94.7236C91.8387 99.318 89.5 101.657 89.5 104.542V276.445C89.5 279.33 91.8387 281.669 94.7236 281.669H122.727C125.618 281.669 127.958 279.322 127.951 276.431L127.503 104.528Z" fill="black"/>
<path d="M99.6372 275.162C99.8054 272.25 97.4895 269.797 94.5728 269.797C91.7712 269.797 89.5 272.068 89.5 274.87V296.011C89.5 297.931 90.729 299.637 92.5511 300.244C95.3388 301.174 98.2484 299.202 98.4178 296.268L99.6372 275.162Z" fill="black"/>
<path d="M89.5 280.719L96.3856 299.714L127.965 280.719H89.5Z" fill="black"/>
<path d="M125.59 276.445H127.965V280.719L125.59 280.719V276.445Z" fill="black"/>
<path d="M400 200C400 310.457 310.457 400 200 400C89.5431 400 0 310.457 0 200C0 89.5431 89.5431 0 200 0C310.457 0 400 89.5431 400 200ZM16.8573 200C16.8573 301.147 98.8531 383.143 200 383.143C301.147 383.143 383.143 301.147 383.143 200C383.143 98.8531 301.147 16.8573 200 16.8573C98.8531 16.8573 16.8573 98.8531 16.8573 200Z" fill="black"/>
</svg>
